<svg xmlns="http://www.w3.org/2000/svg" viewBox="0 0 612 800">
  <path fill="#FEFEFE" d="M227.625 533.125c9.964 8.397 17.21 18.94 24.681 29.492 2.19 3.081 4.409 6.141 6.629 9.201a1851.06 1851.06 0 0 1 15.548 21.79 1531.17 1531.17 0 0 0 10.954 15.33l1.609 2.226a2243.52 2243.52 0 0 0 8.665 11.902l1.826 2.503a1171.1 1171.1 0 0 0 3.502 4.77l1.574 2.161 1.4 1.906C305 636 305 636 305 638h2l.668-2.055c1.72-3.804 4.087-6.791 6.644-10.07 4.597-6 8.963-12.11 13.188-18.375 4.527-6.7 9.223-13.22 14.121-19.652 3.432-4.528 6.69-9.146 9.879-13.848 27.464-40.28 27.464-40.28 50.5-46 3.223-.412 6.38-.466 9.625-.438l2.387-.06c14.736.012 29.46 6.544 43.175 11.373l2.83.992C478.855 546.476 497.48 553.556 516 561l2.246.9c51.282 20.564 51.282 20.564 63.754 31.1l2.559 2.04C598.642 606.828 607.406 623.876 610 642c.536 6.565.423 13.165.398 19.746a2560.119 2560.119 0 0 1-.007 17.624c-.017 5.025-.007 10.05.01 15.075.012 3.928.008 7.855 0 11.782-.002 1.849 0 3.698.008 5.547.11 36.449.11 36.449-6.409 46.226-.98 2.145-1.959 4.291-2.938 6.438-7 14.402-18.46 23.866-33.312 29.875-14.087 4.456-28.117 5.126-42.769 5.075a3962.222 3962.222 0 0 1-21.988.02c-5.8-.006-11.6.007-17.401.017-11.346.017-22.691.018-34.037.013-9.227-.004-18.453-.003-27.68.002l-3.987.003-6.01.003c-18.605.01-37.211.016-55.817.008l-2.122-.001-17.057-.008c-22.17-.01-44.34-.002-66.51.022-24.951.026-49.902.038-74.853.031-13.195-.003-26.39 0-39.586.017a12210.3 12210.3 0 0 1-33.698-.002c-5.724-.009-11.448-.011-17.172.004a2434.2 2434.2 0 0 1-15.757-.01 712.328 712.328 0 0 0-5.662.01c-23.11.12-47.012-3.178-64.187-20.01C17.211 774.95 13.91 770.486 11 765l-1.688-1.5c-1.724-1.971-1.742-3.758-2.003-6.3-.376-2.678-1.053-5.212-1.747-7.825-3.347-13.25-3.887-26.004-3.898-39.586l-.02-5.823c-.012-4.049-.016-8.098-.015-12.148 0-5.149-.027-10.298-.061-15.447-.023-4.003-.026-8.007-.025-12.01a812.062 812.062 0 0 0-.027-5.69c-.109-14.554 1.25-27.802 8.171-40.921l1.04-2.008c11.455-21.353 32.412-33.383 54.085-42.304l4.243-1.774c18.47-7.67 37.197-14.707 55.945-21.664l2.489-.924c16.264-6.028 32.579-11.892 49.073-17.264l3.35-1.099c16.332-5.209 32.954-8.408 47.713 2.412ZM348 146l2.44.554c32.265 7.51 66.232 26.426 84.673 54.684 13.522 22.01 16.953 47.36 17.887 72.762l.103 2.461c.594 16.085-1.262 31.503-3.736 47.355-.44 3.275-.44 3.275-.36 6.961-.007 3.33-.577 4.363-2.007 7.223a97.595 97.595 0 0 0 0 7l-2 1a154.764 154.764 0 0 0-2 7.5c-6.343 24.143-17.198 48.326-32 68.5l-1.167 1.59c-4.933 6.678-10.127 13.052-15.767 19.152-1.845 2.016-3.579 4.087-5.316 6.195C369.908 470.313 342.19 483.392 314 486c-19.822 1.187-38.883-2.266-56.625-11.313-3.193-1.91-3.193-1.91-6.375-1.687a118.962 118.962 0 0 1-4-4 356.502 356.502 0 0 0-6.125-4.625c-5.453-4.088-10.18-8.466-14.852-13.441-1.962-2.15-1.962-2.15-5.023-2.934a398.505 398.505 0 0 1-2-4 260.66 260.66 0 0 0-5.375-6.188C202.16 424.668 193.098 410.413 185 395l-1.93-3.578C171 368.354 171 368.354 171 360l-2-1c-.547-2.157-.547-2.157-.973-4.945-.608-3.688-1.284-7.3-2.21-10.922-10.895-43.078-14.307-100.459 8.757-140.254C186.822 182.8 203.76 169.549 225 160l2.988-1.36C263.673 143.769 309.938 136.87 348 146Z"/>
  <path fill="#FEFEFE" d="M450.945 108.516a377.421 377.421 0 0 1 4.887 4.468c2.07 1.925 4.198 3.753 6.356 5.579 4.01 3.515 7.418 7.33 10.812 11.437l1.28 1.498c23.85 27.925 41.648 65.035 41.79 102.299l.032 2.965c.015 2.007.007 4.016-.024 6.023.012 5.466.012 5.466 2.47 10.158 1.836 1.604 1.836 1.604 3.762 2.878 2.372 1.655 3.496 3.58 4.69 6.179v3l2.64.078c17.838.85 31.754 7.337 44.36 19.922l1.969 1.934c9.192 9.696 13.988 22.745 14.406 36.003-.522 17.352-8 31.51-20.387 43.375C558.104 376.4 542.588 382 527 382l-.75 2.688c-1.71 4.53-3.848 7.356-7.855 10.09-2.638 2.008-2.638 2.008-2.926 5l.031 3.16c-.953 19.608-15.265 39.537-26.5 55.062l-2.215 3.11C467.444 487.637 441.627 501.726 411 512l-2.917.98C368.813 526 368.813 526 355 526l.313 2.188c-.457 4.105-2.165 5.178-5.313 7.812-7.732 5.839-15.15 9.264-25 8-7.517-1.934-13.919-4.55-18.469-11.121-3.75-6.51-4.608-12.464-3.531-19.879 1.817-6.626 6.393-11.227 12-15 4.99-2.546 9.316-3.549 14.875-3.5l2.122.004c5.261.156 8.858 1.266 13.108 4.305 5.126 3.223 10.068 1.83 15.622.636l2.583-.535c2.775-.582 5.545-1.181 8.315-1.785l2.859-.616c45.133-9.793 74.623-24.108 99.934-63.277C485.815 415.55 485.815 415.55 488 395c-1.717-2.677-3.317-4.14-5.922-5.934-6.443-6.407-5.548-16.735-5.59-25.152a1791.778 1791.778 0 0 1-.158-15.041c-.03-3.758-.073-7.516-.114-11.274-.07-6.585-.126-13.17-.172-19.754-.036-4.98-.086-9.958-.142-14.936-.034-3.207-.058-6.415-.076-9.622-.013-2.016-.033-4.032-.053-6.048-.01-11.21.097-22.12 7.227-31.239l1.777-1.676c1.973-3.75.483-7.098-.652-10.949l-.702-2.513C479.657 225.859 479.657 225.859 472 213c-.67-1.999-1.336-3.999-2-6-6.537-12.614-14.758-24.244-24-35-.755-.88-1.51-1.758-2.29-2.664-3.988-4.537-8.07-8.737-12.69-12.629-2.163-1.828-4.243-3.733-6.332-5.644-8.38-8.244-8.38-8.244-18.688-12.063v-3l-2.05-.75c-2.826-1.198-5.442-2.61-8.111-4.118C377.84 121.08 358.432 113.866 338 111l-2.263-.342C287.705 103.597 233.662 112.926 194 142l-3.016 2.121c-28.047 20.483-47.296 49.72-58.422 82.379l-.748 2.173c-1.451 4.466-2.189 8.676-2.49 13.364C129 244 129 244 127 247a192.304 192.304 0 0 0-2 7l1.75.625c4.522 2.763 6.508 7.295 7.852 12.278.8 4.218.683 8.475.673 12.755l.015 3.18c.014 3.458.013 6.915.01 10.373l.014 7.237c.007 5.052.007 10.104.002 15.156-.006 6.461.01 12.922.034 19.384.015 4.981.016 9.962.013 14.943 0 2.382.005 4.763.015 7.145.013 3.336.006 6.671-.006 10.007l.023 2.958c-.066 8.677-1.674 15.978-7.715 22.455-6.68 5.98-13.595 6.932-22.285 6.844-7.775-.778-13.418-4.59-18.336-10.496-1.287-2.241-1.672-4.304-2.059-6.844l-2.316-.043C64.468 381.146 49.748 373.92 37 361c-10.312-11.435-15.788-25.094-15.344-40.578 1.595-15.875 8.556-30.144 20.774-40.477C55.08 270.228 69.042 264.72 85 265l.125-2.063c1.567-5.26 5.38-8.94 9.875-11.937.384-2.453.384-2.453.223-5.32l-.062-3.288-.099-3.517c-.604-45.28 18.763-83.743 49.696-115.916C151.655 115.936 159.11 109.865 167 104l1.69-1.284c9.562-7.26 19.662-13.19 30.31-18.716l2.417-1.266c79.759-41.31 180.7-33.005 249.528 25.782Z"/>
  <path fill="#FFF" d="M136 271h1v105h-1V271Zm339 45h1v60h-1v-60ZM292 109h26v1h-26v-1ZM0 700h1v23H0v-23Zm517-469h1v20h-1v-20Zm-43 51h1v17h-1v-17Zm-317-8h1v16h-1v-16Zm-64-45h1v14h-1v-14Zm10 171h11v1h-11v-1Zm350-140h1v11h-1v-11Zm-295-4h1v10h-1v-10Zm159-115h10v1h-10v-1Zm-20 0h10v1h-10v-1Zm-95 383h9v1h-9v-1ZM20 319h1v9h-1v-9Zm138-21h1v9h-1v-9Zm295 0h1v7h-1v-7ZM321 110h7v1h-7v-1Zm-39 0h7v1h-7v-1ZM1 731h1v6H1v-6Zm474-461h1v6h-1v-6Zm-23-18h1v6h-1v-6ZM289 142h6v1h-6v-1Zm36-86h6v1h-6v-1Zm-38 0h6v1h-6v-1Zm259 743h5v1h-5v-1Zm-484 0h5v1h-5v-1Zm548-67h1v5h-1v-5ZM327 545h5v1h-5v-1ZM159 309h1v5h-1v-5Zm293-2h1v5h-1v-5ZM79 263h5v1h-5v-1Zm80-14h1v5h-1v-5Zm-65-3h1v5h-1v-5Zm236-104h5v1h-5v-1Zm4-85h5v1h-5v-1Zm-55 0h5v1h-5v-1Zm330 681 1 4ZM2 738l1 4Zm-2-73 1 4Zm1-28 1 4Zm416-111 4 1Zm-116-5 1 4Zm16-35 4 1Zm-27 0 4 1Zm32-1 4 1Zm268-155 1 4Zm-569 0 1 4Zm140-4 1 4ZM21 312l1 4Zm507-49 4 1ZM94 221l1 4Zm2-16 1 4Zm249-92 4 1Zm-71-55 4 1Zm278 740 3 1Zm-494 0 3 1Zm-10-2 3 1Zm287-252 3 1Zm-13 0 3 1Zm101-17 3 1Zm-24 0 3 1Zm5-1 3 1Zm-41-1 3 1Zm-166 0 3 1Zm170-1 3 1Zm14-3 3 1Zm11-3 3 1Zm-44-18 3 1Zm10-2 3 1Zm4-1 3 1Zm11-2 3 1Zm4-1 3 1Zm-92-9 3 1Zm255-104 3 1Zm-471 0 3 1Zm176-230 3 1Zm25-6 3 1Zm14-2 3 1Zm-21-30 3 1Zm78-1 3 1Zm-74 0 3 1Zm99-49 3 1Zm-9-2 3 1Zm-4-1 3 1Zm-92 0 3 1Zm79-2 3 1Zm222 738 2 1Zm3-1 2 1Zm-519 0 2 1Zm-8-3 2 1Zm267-157 2 1ZM53 577l2 1Zm9-4 2 1Zm2-1 2 1Zm5-2 2 1Zm2-1 2 1Zm462-2 2 1Zm-2-1 2 1Zm-447-2 2 1Zm2-1 2 1Zm430-3 2 1Zm-422 0 2 1Zm420-1 2 1Zm-418 0 2 1Zm8-3 2 1Zm8-3 2 1Zm8-3 2 1Zm8-3 2 1Zm352-1 2 1Zm-6-2 2 1Zm-337 0 2 1Zm335-1 2 1Zm-134 0 2 1Zm-199 0 2 1Zm9-3 2 1Zm309-2 2 1Zm-2-1 2 1Zm-296-1 2 1Zm287-2 2 1Zm-2-1 2 1Zm-276 0 2 1Zm269-2 2 1Zm-2-1 2 1Zm-258 0 2 1Zm250-2 2 1Zm-243 0 2 1Zm35-1 2 1Zm-32 0 2 1Zm3-1 2 1Zm22-1 2 1Zm166-3 2 1Zm17-5 2 1Zm7-2 2 1Zm3-1 2 1Zm9-3 2 1Zm6-2 2 1Zm2-1 2 1Zm8-3 2 1Zm2-1 2 1Zm5-2 2 1Zm-82-3 2 1Zm-15-4 2 1Zm-2-1 2 1Zm-19 0 2 1Zm69-2 2 1Zm3-1 2 1Zm8-2 2 1Zm2-1 2 1Zm3-1 2 1Zm7-2 2 1Zm2-1 2 1Zm-86 0 2 1Zm-45 0 2 1Zm51-1 2 1Zm-57 0 2 1Zm143-1 2 1Zm-83 0 2 1Zm-63 0 2 1Zm148-1 2 1Zm-76-2 2 1Zm-81 0 2 1Zm-143-82 2 1Zm-26 0 2 1Zm441-15 2 1Zm8-2 2 1Zm-478 0 2 1Zm487-111 2 1Zm-8-3 2 1Zm-480 0 2 1Zm477-1 2 1Zm-474 0 2 1Zm144-101 2 1Zm178-3 2 1Zm-12-6 2 1Zm-145 0 2 1Zm138-3 2 1Zm-128 0 2 1Zm126-1 2 1Zm-6-2 2 1Zm-109 0 2 1Zm106-1 2 1Zm-103 0 2 1Zm95-2 2 1Zm-85 0 2 1Zm82-1 2 1Zm-4-1 2 1Zm-70 0 2 1Zm62-1 2 1Zm65-7 2 1Zm-5-3 2 1Zm-175-7 2 1Zm155-3 2 1Zm-148 0 2 1Zm146-1 2 1Zm-144 0 2 1Zm136-3 2 1Zm-127 0 2 1Zm121-2 2 1Zm-114 0 2 1Zm111-1 2 1Zm-108 0 2 1Zm3-1 2 1Zm97-1 2 1Zm-91 0 2 1Zm73-3 2 1Zm70-35 2 1Zm-191 0 2 1Zm186-2 2 1Zm-2-1 2 1Zm-177 0 2 1Zm6-2 2 1Zm2-1 2 1Zm153-3 2 1Zm-144 0 2 1Zm142-1 2 1Zm-8-2 2 1Zm-124 0 2 1Zm3-1 2 1Zm10-2 2 1Zm91-2 2 1Zm-83 0 2 1Z"/>
</svg>
